<?xml version="1.0" standalone="no"?>
<!DOCTYPE svg PUBLIC "-//W3C//DTD SVG 20010904//EN"
 "http://www.w3.org/TR/2001/REC-SVG-20010904/DTD/svg10.dtd">
<svg version="1.0" xmlns="http://www.w3.org/2000/svg"
 width="512.000000pt" height="512.000000pt" viewBox="0 0 512.000000 512.000000"
 preserveAspectRatio="xMidYMid meet">

<g transform="translate(0.000000,512.000000) scale(0.100000,-0.100000)"
fill="#000000" stroke="none">
<path d="M2290 4759 c-363 -37 -758 -172 -1072 -366 -93 -58 -256 -176 -321
-234 l-38 -34 334 -334 334 -333 74 54 c77 57 164 111 237 147 136 69 369 140
510 156 l62 7 0 474 c0 445 -1 474 -17 473 -10 -1 -56 -6 -103 -10z"/>
<path d="M2710 4296 l0 -474 58 -7 c264 -32 554 -150 766 -313 l58 -45 335
335 335 335 -73 62 c-127 106 -337 240 -504 322 -295 144 -563 218 -917 253
l-58 6 0 -474z"/>
<path d="M576 3831 c-162 -195 -333 -493 -424 -742 -73 -197 -124 -430 -147
-661 l-7 -68 474 0 474 0 13 91 c35 245 141 505 288 704 l65 88 -334 334 -335
335 -67 -81z"/>
<path d="M4141 3576 l-333 -333 65 -88 c146 -198 254 -461 289 -707 l12 -88
473 0 c373 0 473 3 473 13 0 50 -35 292 -56 386 -83 377 -281 786 -519 1071
-37 44 -67 80 -68 80 -1 0 -152 -150 -336 -334z"/>
<path d="M2475 2670 c-315 -69 -473 -389 -335 -675 61 -127 258 -283 892 -708
167 -112 399 -265 517 -340 197 -126 217 -137 261 -137 107 0 177 105 136 203
-28 67 -609 944 -796 1202 -223 307 -308 392 -432 434 -72 25 -184 34 -243 21z"/>
<path d="M5 1993 c59 -605 293 -1124 694 -1545 86 -91 125 -109 193 -89 36 11
83 53 291 259 329 328 330 329 182 498 -233 266 -374 570 -411 887 l-7 57
-474 0 -475 0 7 -67z"/>
<path d="M4166 2003 c-17 -145 -64 -315 -123 -445 l-35 -77 97 -151 c54 -83
109 -178 122 -212 47 -115 40 -257 -18 -370 -27 -53 -118 -149 -164 -174 -19
-10 -35 -21 -35 -24 0 -4 39 -45 88 -92 148 -145 197 -144 337 5 316 335 542
769 635 1224 18 83 50 319 50 360 0 10 -100 13 -474 13 l-473 0 -7 -57z"/>
</g>
</svg>
